<?xml version="1.0" standalone="no"?>
<!DOCTYPE svg PUBLIC "-//W3C//DTD SVG 1.1//EN" "http://www.w3.org/Graphics/SVG/1.1/DTD/svg11.dtd" >
<svg xmlns="http://www.w3.org/2000/svg" xmlns:xlink="http://www.w3.org/1999/xlink" version="1.1">
<metadata></metadata>
<defs>
<font id="expo_sans_proitalic" horiz-adv-x="1054" >
<font-face units-per-em="2048" ascent="1657" descent="-391" />
<missing-glyph horiz-adv-x="512" />
<glyph unicode="&#xfb01;" horiz-adv-x="1134" d="M-104 -246q108 63 160.5 145t76.5 246l105 713h-142l72 129h84l8 53q40 270 174.5 409t341.5 142l12 -141q-167 -18 -255 -110t-113 -304l-6 -49h288l-65 -129h-240l-102 -713q-17 -117 -47 -203.5t-74 -146t-93 -98.5t-116 -72zM678 119q0 26 8 76l137 782l166 41 l-131 -758q-8 -54 -8 -80q0 -65 47 -127l-152 -84q-67 46 -67 150zM821 1352l10 47l199 61l29 -30l-51 -203l-78 -27z" />
<glyph unicode="&#xfb02;" horiz-adv-x="1134" d="M-104 -246q73 43 116 87t74 117.5t47 186.5l105 713h-142l72 129h84l8 53q41 270 175.5 409t344.5 142l13 -141q-170 -18 -259 -110t-114 -304l-6 -49h284l-65 -129h-236l-102 -713q-17 -117 -47 -203.5t-74 -146t-93 -98.5t-116 -72zM688 119q0 26 8 76l238 1349l168 43 l-232 -1327q-8 -54 -8 -82q0 -65 45 -125l-151 -84q-68 47 -68 150z" />
<glyph horiz-adv-x="0" />
<glyph horiz-adv-x="682" />
<glyph unicode=" "  horiz-adv-x="512" />
<glyph unicode="&#x09;" horiz-adv-x="512" />
<glyph unicode="&#xa0;" horiz-adv-x="512" />
<glyph unicode="!" horiz-adv-x="466" d="M6 127q18 42 61 73.5t95 35.5q48 -14 79.5 -59t39.5 -101q-46 -94 -162 -109q-46 19 -78 64t-35 96zM135 438l131 944l193 41l18 -14l-209 -952l-114 -33z" />
<glyph unicode="&#x22;" horiz-adv-x="737" d="M164 909l51 490l164 22l27 -28l-134 -478l-82 -26zM471 909l53 490l162 22l29 -28l-133 -478l-82 -26z" />
<glyph unicode="#" d="M63 420l27 117h176l68 282h-172l26 119h172l66 264h125l-64 -264h191l65 264h123l-63 -264h176l-27 -119h-176l-69 -282h176l-31 -117h-172l-64 -268h-129l68 268h-193l-65 -268h-127l66 268h-173zM391 537h191l69 282h-194z" />
<glyph unicode="$" d="M8 260l123 84q73 -179 236 -203l92 525q-60 35 -100.5 64.5t-78.5 69t-56.5 87.5t-18.5 104q0 161 111 273t270 127l32 188l105 -8l-31 -176q160 -10 258 -84l-80 -131q-90 69 -200 84l-88 -496q127 -71 192.5 -149t65.5 -189q0 -91 -32 -167.5t-86.5 -128t-124 -83.5 t-146.5 -41l-41 -227l-105 14l37 213q-125 14 -209.5 83t-124.5 167zM358 1028q0 -70 32 -117.5t95 -87.5l78 439q-91 -13 -148 -79t-57 -155zM473 143q92 14 151.5 81.5t59.5 166.5q0 135 -129 219z" />
<glyph unicode="%" horiz-adv-x="1767" d="M106 829q0 164 49.5 300.5t146 219.5t222.5 83q114 0 184 -74.5t70 -194.5q0 -163 -48.5 -294t-147 -211t-232.5 -80q-110 0 -177 67.5t-67 183.5zM270 856q0 -65 28 -108t89 -43q62 0 108 44t70 114.5t35.5 142t11.5 141.5q0 67 -28 112.5t-92 45.5q-57 0 -101.5 -43 t-70 -111.5t-38 -144t-12.5 -150.5zM403 37l822 1395l118 -66l-823 -1397zM969 221q0 163 49.5 299t146 219.5t221.5 83.5q115 0 184.5 -74.5t69.5 -195.5q0 -164 -48 -294.5t-146 -210t-232 -79.5q-110 0 -177.5 68t-67.5 184zM1133 246q0 -63 28.5 -106.5t89.5 -43.5 q50 0 90 30t65 76.5t41.5 107.5t23 117.5t6.5 111.5q0 67 -28.5 112t-92.5 45q-57 0 -102 -43t-70 -112t-38 -144.5t-13 -150.5z" />
<glyph unicode="&#x26;" horiz-adv-x="1300" d="M-4 297q0 166 101.5 298t264.5 212q-28 100 -28 197q0 182 115 306t292 124q53 0 101.5 -19.5t75.5 -42.5l-74 -131q-78 57 -150 57q-47 0 -84.5 -25t-59 -65t-33 -85.5t-11.5 -92.5q0 -138 76 -339.5t182 -395.5q100 96 173 274t71 318h172l8 -15q-71 -447 -348 -696 q75 -119 143 -203l-147 -94q-24 28 -72.5 97t-71.5 106q-88 -60 -169.5 -86.5t-198.5 -26.5q-155 0 -241.5 82.5t-86.5 245.5zM176 350q0 -118 56.5 -179.5t158.5 -61.5q63 0 114 23t113 67q-57 104 -116 240t-94 245q-104 -55 -168 -143.5t-64 -190.5z" />
<glyph unicode="'" horiz-adv-x="428" d="M164 909l51 490l164 22l27 -28l-134 -478l-82 -26z" />
<glyph unicode="(" horiz-adv-x="741" d="M168 240q0 704 432 1296l133 -88q-191 -265 -291 -567t-100 -619q0 -145 24.5 -307.5t61.5 -265.5l-160 -54q-43 114 -71.5 282.5t-28.5 322.5z" />
<glyph unicode=")" horiz-adv-x="755" d="M-51 -276q191 264 290 565.5t99 619.5q0 144 -24 307t-60 267l158 53q44 -113 72 -280.5t28 -323.5q0 -705 -432 -1297z" />
<glyph unicode="*" horiz-adv-x="792" d="M174 1128l41 125l174 -73l8 6l4 231h134l-35 -231l6 -6l201 73l41 -125l-234 -30l-2 -13l139 -194l-119 -74l-83 223h-15l-125 -223l-108 84l170 182l-2 13z" />
<glyph unicode="+" d="M180 633v123h264v276h134v-276h262v-123h-262v-277h-134v277h-264z" />
<glyph unicode="," horiz-adv-x="374" d="M-102 -213q119 200 151 422l162 45l35 -31q-27 -119 -107 -256.5t-168 -224.5z" />
<glyph unicode="-" horiz-adv-x="706" d="M82 461v153h522v-153h-522z" />
<glyph unicode="." horiz-adv-x="425" d="M6 129q18 41 62 74t92 37q45 -17 76.5 -62t37.5 -100q-21 -44 -62.5 -73.5t-94.5 -35.5q-44 19 -76 65t-35 95z" />
<glyph unicode="/" horiz-adv-x="821" d="M-162 -98l981 1636l133 -76l-981 -1634z" />
<glyph unicode="0" d="M31 379q0 120 16 241.5t48 240.5t84 221.5t118.5 181.5t158 124.5t197.5 45.5q92 0 160 -36.5t106.5 -100.5t57 -141t18.5 -169q0 -148 -21 -288t-69.5 -274t-120 -234t-181.5 -161t-245 -61q-87 0 -152 32t-102 89.5t-55 129t-18 159.5zM211 420q0 -64 8 -113.5 t28.5 -96.5t63.5 -73t105 -26q86 0 156.5 58t114 148t73 207t41.5 228t12 217q0 53 -4.5 95.5t-18 86.5t-36 73.5t-61.5 48.5t-91 19q-79 0 -145.5 -56t-111 -146.5t-75.5 -206.5t-45 -233t-14 -230z" />
<glyph unicode="1" d="M184 1157l64 146l547 141l-254 -1444h-170l221 1255l-391 -112z" />
<glyph unicode="2" d="M-66 82l265 240q121 110 210 201.5t170 192t123.5 192t42.5 169.5q0 106 -61.5 160.5t-159.5 54.5q-140 0 -260 -78l-53 136q133 84 354 84q70 0 132.5 -18t115 -55t83 -101t30.5 -148q0 -80 -30 -164.5t-75.5 -158.5t-120.5 -162.5t-143 -157t-166 -160.5l-182 -170h559 l-59 -139h-768z" />
<glyph unicode="3" d="M-57 96l86 131q124 -118 284 -118q170 0 264.5 94t94.5 258q0 128 -71.5 198t-203.5 70q-95 0 -149 -14l-17 47l457 502h-485l-13 20l56 119h710l13 -39l-475 -514q71 -2 134.5 -24.5t114 -64t80 -107.5t29.5 -148q0 -240 -156.5 -388.5t-398.5 -148.5q-217 0 -354 127z " />
<glyph unicode="4" d="M-25 274l19 105l776 1028l176 37l-180 -1036h152l-68 -134h-109l-49 -274h-155l49 274h-611zM180 408h430l127 727h-14z" />
<glyph unicode="5" d="M-43 92l90 129q112 -112 285 -112q165 0 263.5 105t98.5 282q0 280 -286 280q-142 0 -234 -37l-33 39l240 625h577l15 -23l-53 -116h-437l-141 -371q46 12 135 12q79 0 147 -19t126.5 -59.5t92.5 -115t34 -174.5q0 -159 -70 -288t-200 -204.5t-296 -75.5q-222 0 -354 123 z" />
<glyph unicode="6" d="M37 410q0 102 12.5 203t40.5 202.5t69 191.5t101 168t133 134.5t169 88.5t206 32q147 0 246 -54l-62 -137q-97 53 -209 53q-88 0 -162.5 -34t-126.5 -87t-93.5 -128t-66 -148t-42.5 -156l6 -6q149 137 352 137q134 0 222 -83.5t88 -233.5t-66 -283t-190.5 -217 t-278.5 -84q-95 0 -164.5 34.5t-108.5 97t-57 139t-18 170.5zM215 451q0 -340 207 -340q80 0 142.5 35.5t99.5 95t56 130.5t19 148q0 102 -46 160.5t-138 58.5q-174 0 -328 -151q-12 -58 -12 -137z" />
<glyph unicode="7" d="M125 1282l57 121h850l12 -27l-712 -1376h-182l659 1264h-672z" />
<glyph unicode="8" d="M2 293q0 168 100.5 292.5t251.5 157.5v9q-80 21 -134 87t-54 154q0 200 141.5 320.5t351.5 120.5q147 0 241.5 -75.5t94.5 -209.5q0 -153 -80.5 -259.5t-222.5 -137.5v-9q93 -24 156 -95.5t63 -184.5q0 -229 -145.5 -361.5t-378.5 -132.5q-174 0 -279.5 83t-105.5 241z M182 336q0 -105 64.5 -166t169.5 -61q153 0 236 90t83 241q0 113 -64.5 174.5t-174.5 61.5q-95 0 -168 -49t-109.5 -125.5t-36.5 -165.5zM344 1014q0 -93 52.5 -151t142.5 -58q126 0 200 81t74 206q0 94 -56.5 148t-148.5 54q-119 0 -191.5 -82.5t-72.5 -197.5z" />
<glyph unicode="9" d="M8 29l68 143q90 -63 223 -63q82 0 153.5 34t122 88t91.5 127.5t65.5 146.5t40.5 152l-6 7q-71 -62 -155.5 -99t-207.5 -37q-136 0 -217.5 81t-81.5 229q0 115 38.5 222t107 189t172 131.5t225.5 49.5q91 0 159 -34.5t107 -96.5t57.5 -138.5t18.5 -169.5 q0 -107 -13.5 -212t-41.5 -206.5t-69.5 -191t-101 -165.5t-131.5 -130.5t-164.5 -85.5t-197.5 -31q-171 0 -262 60zM285 883q0 -106 46.5 -165t139.5 -59q91 0 168.5 40.5t157.5 115.5q14 72 14 135q0 73 -9 129t-30.5 105.5t-64 76.5t-103.5 27q-80 0 -142.5 -35t-100 -94 t-57 -129.5t-19.5 -146.5z" />
<glyph unicode=":" horiz-adv-x="456" d="M6 129q18 41 62 74t92 37q45 -17 76.5 -62t37.5 -100q-21 -44 -62.5 -73.5t-94.5 -35.5q-44 19 -76 65t-35 95zM129 809q16 40 60 72.5t94 36.5q45 -15 76.5 -60.5t37.5 -101.5q-23 -43 -64 -72t-95 -35q-43 19 -74.5 65t-34.5 95z" />
<glyph unicode=";" horiz-adv-x="456" d="M-102 -213q120 205 151 422l162 45l35 -31q-27 -119 -107 -256.5t-168 -224.5zM129 809q16 40 60 72.5t94 36.5q44 -15 76 -60.5t38 -101.5q-23 -43 -64 -72t-95 -35q-43 19 -74.5 65t-34.5 95z" />
<glyph unicode="&#x3c;" d="M209 662v14l477 440l92 -96l-364 -348l364 -355l-96 -100z" />
<glyph unicode="=" d="M199 457v137h624v-137h-624zM199 770v137h624v-137h-624z" />
<glyph unicode="&#x3e;" d="M238 317l366 355l-366 348l94 96l475 -440v-14l-471 -445z" />
<glyph unicode="?" horiz-adv-x="712" d="M47 125q18 39 62 70.5t94 35.5q45 -15 76.5 -58.5t39.5 -98.5q-23 -43 -64 -71t-95 -34q-45 19 -76.5 62.5t-36.5 93.5zM96 1348q67 43 156 64.5t168 21.5q53 0 100.5 -9t92 -31t77 -55t51.5 -85t19 -117q0 -134 -53 -239.5t-137 -170.5t-199 -106l28 -179l-112 -34 l-121 256l14 26q76 21 133.5 44.5t109 57.5t84.5 75.5t52 99.5t19 129q0 92 -54.5 144t-144.5 52q-110 0 -240 -65z" />
<glyph unicode="@" horiz-adv-x="1492" d="M90 489q0 200 56.5 372.5t161 299.5t262.5 200t350 73q226 0 352.5 -135.5t126.5 -366.5q0 -98 -18 -186t-55.5 -162.5t-92 -128.5t-130.5 -84.5t-167 -30.5q-68 0 -105 18q-11 14 -24 48.5t-14 54.5h-5q-57 -59 -116.5 -90t-134.5 -31q-49 0 -76 44t-27 132 q0 140 50.5 267t149 210.5t222.5 83.5q43 0 97.5 -16t88.5 -41q-4 -17 -37 -140t-52 -213.5t-19 -142.5q0 -65 65 -65q85 0 145 64t86.5 158.5t26.5 207.5q0 198 -97.5 308t-278.5 110q-149 0 -272.5 -63.5t-202.5 -170.5t-122.5 -244.5t-43.5 -289.5q0 -211 97 -328 t294 -117q148 0 299 92l55 -112q-72 -45 -173 -76t-216 -31q-234 0 -370 136t-136 386zM582 563q0 -55 14.5 -78.5t46.5 -23.5q34 0 79.5 30t86.5 82l88 385q-30 15 -72 15q-74 0 -131 -62t-84.5 -153.5t-27.5 -194.5z" />
<glyph unicode="A" horiz-adv-x="1126" d="M-119 16l727 1381l121 26l254 -1415l-170 -16l-84 467l-469 -56l-215 -419zM334 555l373 43l-91 508z" />
<glyph unicode="B" horiz-adv-x="1120" d="M76 0l246 1403q162 31 309 31q58 0 110.5 -6.5t107.5 -25t94.5 -47.5t65 -77.5t25.5 -112.5q0 -166 -106.5 -275t-280.5 -155q136 -30 216.5 -108t80.5 -209q0 -94 -33 -170t-88.5 -127.5t-131 -86t-158 -50t-171.5 -15.5q-184 0 -286 31zM270 123q42 -14 136 -14 q55 0 104.5 8.5t96.5 29.5t80.5 52t54 79t20.5 109q0 146 -105.5 217.5t-287.5 71.5zM391 805q82 0 159 16t147 49t112.5 94.5t42.5 143.5q0 69 -36 113.5t-88.5 61.5t-119.5 17q-73 0 -133 -18z" />
<glyph unicode="C" horiz-adv-x="1091" d="M82 492q0 204 60 379t166.5 299t258 194t328.5 70q128 0 213 -29l-45 -154q-103 35 -201 35q-136 0 -249 -62t-186 -166t-113 -236.5t-40 -276.5q0 -202 96.5 -315t270.5 -113q151 0 268 47l-49 -168q-100 -27 -250 -27q-242 0 -385 132t-143 391z" />
<glyph unicode="D" horiz-adv-x="1357" d="M76 0l248 1403q140 31 294 31q95 0 180 -14.5t168.5 -52t144 -95.5t97.5 -151.5t37 -213.5q0 -219 -69.5 -391.5t-197 -285t-304.5 -171.5t-393 -59h-205zM281 143q132 0 246 25t212 81t167 138.5t108 203.5t39 271q0 106 -35 190t-96.5 136.5t-141 80t-170.5 27.5 q-78 0 -131 -16z" />
<glyph unicode="E" horiz-adv-x="999" d="M76 0l246 1403h657l-35 -146h-469l-82 -464h457l-37 -146h-446l-88 -502h520l-56 -145h-667z" />
<glyph unicode="F" horiz-adv-x="952" d="M76 0l246 1403h657l-35 -146h-469l-90 -505h459l-37 -146h-447l-106 -606h-178z" />
<glyph unicode="G" horiz-adv-x="1271" d="M82 494q0 208 62.5 384.5t172.5 298t262.5 189.5t329.5 68q112 0 258 -31l-47 -158q-50 16 -122.5 28.5t-125.5 12.5q-141 0 -256.5 -62t-189 -166t-113 -236t-39.5 -277q0 -209 100 -321.5t283 -112.5q104 0 181 22l94 531h178l-113 -639q-148 -56 -368 -56 q-250 0 -398.5 135.5t-148.5 389.5z" />
<glyph unicode="H" horiz-adv-x="1390" d="M76 0l246 1403h178l-107 -610l617 51l96 559h180l-246 -1403h-180l121 690l-616 -51l-111 -639h-178z" />
<glyph unicode="I" horiz-adv-x="604" d="M76 0l246 1403h178l-246 -1403h-178z" />
<glyph unicode="J" horiz-adv-x="604" d="M-178 -246q96 51 150 108t86.5 141.5t58.5 232.5l205 1167h178l-207 -1178q-21 -123 -47 -207.5t-70.5 -161t-111.5 -133t-166 -102.5z" />
<glyph unicode="K" horiz-adv-x="1179" d="M76 0l246 1403h178l-246 -1403h-178zM391 721l666 706l160 -51l-623 -655l432 -690l-170 -56z" />
<glyph unicode="L" horiz-adv-x="903" d="M76 0l246 1403h178l-221 -1258h495l-57 -145h-641z" />
<glyph unicode="M" horiz-adv-x="1695" d="M-51 16l506 1379l151 18l58 -332q6 -38 32 -189t47.5 -284t34.5 -223h10l547 1010l150 18v-1413h-189l15 526q7 314 22 549h-10l-563 -1020l-90 -6l-86 492q-43 249 -84 534h-11l-366 -1083z" />
<glyph unicode="N" horiz-adv-x="1400" d="M76 0l243 1386l152 37l219 -510q187 -442 254 -608l8 2l168 1096h176l-247 -1403h-148l-158 362q-290 681 -313 740l-8 -2l-170 -1100h-176z" />
<glyph unicode="O" horiz-adv-x="1392" d="M82 477q0 129 28 261t88.5 257.5t145 222.5t208.5 156.5t269 59.5q206 0 332.5 -138t126.5 -364q0 -143 -29 -280.5t-90.5 -261.5t-148.5 -217.5t-211.5 -148.5t-270.5 -55q-209 0 -328.5 140t-119.5 368zM274 524q0 -67 10.5 -126t34 -111t58.5 -89.5t87.5 -59 t117.5 -21.5q108 0 196 50t144 130t94.5 184t54.5 207t16 205q0 176 -77.5 284.5t-237.5 108.5q-87 0 -161.5 -35t-128 -95t-94.5 -136.5t-65.5 -163t-36.5 -170t-12 -162.5z" />
<glyph unicode="P" horiz-adv-x="1058" d="M76 0l248 1403q126 31 299 31q63 0 118.5 -8t111.5 -29.5t95.5 -56t64.5 -91t25 -129.5q0 -121 -37 -217.5t-100 -161t-151.5 -107.5t-187 -62t-210.5 -19l-98 -553h-178zM377 700q74 0 139.5 11.5t127 39.5t105.5 70.5t70.5 108.5t26.5 149q0 113 -67 165t-179 52 q-82 0 -119 -14z" />
<glyph unicode="Q" horiz-adv-x="1392" d="M82 477q0 129 28 261t88.5 257.5t145 222.5t208.5 156.5t269 59.5q206 0 332.5 -138t126.5 -364q0 -271 -98 -497t-273 -349l154 -270l-215 -95l-70 297q-108 -49 -250 -49q-207 0 -326.5 140t-119.5 368zM274 524q0 -67 10.5 -126t34 -111t58.5 -89.5t87.5 -59 t117.5 -21.5q108 0 196 50t144 130t94.5 184t54.5 207t16 205q0 176 -77.5 284.5t-237.5 108.5q-87 0 -161.5 -35t-128 -95t-94.5 -136.5t-65.5 -163t-36.5 -170t-12 -162.5z" />
<glyph unicode="R" horiz-adv-x="1077" d="M76 0l248 1403q121 31 299 31q62 0 117 -8t111 -29.5t96 -55.5t65.5 -91t25.5 -130q0 -184 -105 -314.5t-276 -174.5l324 -631h-197l-309 604q-25 -4 -117 -4l-104 -600h-178zM383 733q76 0 137 7.5t124 30t105.5 59.5t69.5 101t27 150q0 111 -67.5 163t-176.5 52 q-79 0 -121 -14z" />
<glyph unicode="S" horiz-adv-x="962" d="M-47 176l131 109q43 -70 113 -119t163 -49q115 0 184.5 67t69.5 195q0 96 -56.5 162t-168.5 131q-108 64 -169.5 144t-61.5 196q0 183 124 302.5t322 119.5q77 0 157.5 -20.5t129.5 -59.5l-80 -148q-114 80 -231 80q-105 0 -171.5 -65.5t-66.5 -167.5q0 -91 48.5 -149.5 t152.5 -123.5q56 -35 95.5 -65.5t79.5 -74t60.5 -97t20.5 -115.5q0 -109 -38 -198t-103 -145t-148 -86t-176 -30q-256 0 -381 207z" />
<glyph unicode="T" horiz-adv-x="954" d="M96 1257l39 146h912l-35 -146h-363l-221 -1257h-178l221 1257h-375z" />
<glyph unicode="U" horiz-adv-x="1335" d="M106 283q0 91 17 184l166 936h178l-160 -895q-14 -82 -14 -170q0 -213 188 -213q95 0 193 51t182 131l195 1096h180l-248 -1403h-180l28 158q-113 -96 -213.5 -142.5t-230.5 -46.5q-138 0 -209.5 81t-71.5 233z" />
<glyph unicode="V" horiz-adv-x="1146" d="M137 1403l189 16l63 -524q63 -552 72 -647h10l559 1171l176 -49l-700 -1370h-178z" />
<glyph unicode="W" horiz-adv-x="1744" d="M139 1399l178 20l25 -532q15 -375 18 -617h11l520 1073l147 27l58 -432q68 -509 82 -668h10l430 1149l184 -41l-575 -1378h-170l-53 381q-63 437 -84 666h-11l-516 -1047h-170z" />
<glyph unicode="X" horiz-adv-x="1099" d="M-90 33l541 686l-287 663l166 43l254 -579l395 579l172 -47l-502 -686l289 -672l-166 -45l-256 588l-440 -588z" />
<glyph unicode="Y" horiz-adv-x="1019" d="M98 1386l174 39l232 -671l457 673l161 -59l-573 -786l-103 -582h-178l103 582z" />
<glyph unicode="Z" horiz-adv-x="960" d="M-113 63l877 1194h-590l37 146h795l32 -70l-905 -1188h680l-59 -145h-830z" />
<glyph unicode="[" horiz-adv-x="737" d="M76 -315l319 1804h344l-24 -131h-174l-273 -1546h176l-24 -127h-344z" />
<glyph unicode="\" horiz-adv-x="772" d="M96 1470l154 48l409 -1633l-159 -51z" />
<glyph unicode="]" horiz-adv-x="753" d="M-66 -315l25 127h178l271 1546h-177l23 131h342l-320 -1804h-342z" />
<glyph unicode="^" horiz-adv-x="917" d="M45 838l424 596h12l422 -592l-127 -86l-309 446l-305 -446z" />
<glyph unicode="_" horiz-adv-x="817" d="M-143 -102h817v-134h-817v134z" />
<glyph unicode="`" horiz-adv-x="1017" d="M313 1417l11 31l127 78l198 -352l-61 -48z" />
<glyph unicode="a" horiz-adv-x="1071" d="M74 258q0 135 42.5 269t119 244t194.5 178.5t256 68.5q66 0 139.5 -22.5t118.5 -57.5l-104 -604q-2 -13 -7 -38.5t-7.5 -45.5t-2.5 -37q0 -93 70 -137l-131 -107q-44 23 -73.5 68.5t-35.5 95.5h-8q-193 -164 -391 -164q-49 0 -86 27.5t-56.5 73t-28.5 92.5t-9 96z M244 313q0 -188 118 -188q144 0 304 156l102 563q-56 24 -121 24q-84 0 -153.5 -34t-114.5 -89.5t-76.5 -129t-45 -149.5t-13.5 -153z" />
<glyph unicode="b" horiz-adv-x="1046" d="M63 35l265 1509l168 41l-123 -715l8 -2q81 66 179.5 108t197.5 42q49 0 86 -27.5t56.5 -72.5t28.5 -92.5t9 -96.5q0 -135 -43 -269t-119.5 -244t-194.5 -178.5t-255 -68.5q-147 0 -263 66zM242 131q58 -18 123 -18q84 0 153 35t114 91.5t76 131t44.5 150.5t13.5 153 q0 190 -117 190q-138 0 -305 -155z" />
<glyph unicode="c" horiz-adv-x="866" d="M74 301q0 103 22.5 205t68.5 194.5t110.5 163t154.5 112.5t193 42q132 0 200 -57l-80 -142q-73 55 -174 55q-66 0 -122.5 -36t-93 -93t-62.5 -127.5t-37.5 -138t-11.5 -127.5q0 -235 168 -235q65 0 140.5 43t139.5 106l82 -98q-214 -199 -424 -199q-94 0 -157 46 t-90 118.5t-27 167.5z" />
<glyph unicode="d" horiz-adv-x="1081" d="M74 258q0 107 26.5 215.5t79.5 206t125 173.5t170.5 120.5t208.5 44.5q73 0 111 -17l94 543l168 41l-217 -1251q-15 -102 -15 -121q0 -94 68 -137l-129 -107q-45 23 -75 68t-36 96h-6q-199 -164 -393 -164q-49 0 -86 27.5t-56.5 73t-28.5 92.5t-9 96zM246 311 q0 -186 116 -186q146 0 306 156l100 563q-56 24 -119 24q-84 0 -153.5 -34.5t-114.5 -90t-76.5 -129.5t-45 -150t-13.5 -153z" />
<glyph unicode="e" horiz-adv-x="923" d="M74 287q0 100 22 202t68 197t109 169t153 118.5t192 44.5q107 0 174.5 -50.5t67.5 -146.5q0 -86 -33 -151t-91 -104t-130 -58t-157 -19q-112 0 -191 27q-20 -75 -20 -186q0 -104 39.5 -160.5t134.5 -56.5q63 0 144.5 48.5t150.5 117.5l86 -93q-217 -217 -437 -217 q-148 0 -215 85t-67 233zM293 635q95 -25 190 -25q90 0 150.5 41.5t60.5 126.5q0 51 -38.5 78t-92.5 27q-94 0 -161.5 -71t-108.5 -177z" />
<glyph unicode="f" horiz-adv-x="595" d="M-104 -246q73 43 116 87t74 117.5t47 186.5l105 713h-142l72 129h84l8 53q41 271 176.5 409.5t351.5 141.5l13 -141q-176 -18 -266 -109.5t-115 -304.5l-6 -49h293l-66 -129h-244l-102 -713q-17 -117 -47 -203.5t-74 -146t-93 -98.5t-116 -72z" />
<glyph unicode="g" horiz-adv-x="1034" d="M-61 -334l90 129q104 -98 247 -98q135 0 224 94t116 234l19 102h-6q-179 -152 -381 -152q-50 0 -88 27.5t-58 72t-29.5 92t-9.5 95.5q0 107 26.5 215t80 205t126 172t171 119.5t209.5 44.5q68 0 141 -22.5t117 -57.5l-160 -907q-37 -214 -175.5 -342.5t-344.5 -128.5 q-100 0 -173 23t-142 83zM238 313q0 -188 116 -188q137 0 305 156l99 563q-52 24 -117 24q-85 0 -154.5 -34t-114.5 -89.5t-76 -129t-44.5 -149.5t-13.5 -153z" />
<glyph unicode="h" horiz-adv-x="1122" d="M72 0l272 1544l168 41l-123 -717l8 -4q85 65 193 109.5t205 44.5q56 0 93.5 -30.5t51.5 -71t14 -87.5q0 -40 -12 -114l-76 -455q-8 -54 -8 -82q0 -65 45 -125l-151 -84q-68 47 -68 150q0 26 8 76l86 499q6 34 6 72q0 41 -24.5 69.5t-71.5 28.5q-80 0 -169 -45t-163 -108 l-123 -711h-161z" />
<glyph unicode="i" horiz-adv-x="546" d="M100 119q0 20 9 76l137 782l166 41l-131 -758q-9 -61 -9 -80q0 -65 47 -127l-151 -84q-68 47 -68 150zM231 1346l7 47l204 67l29 -30l-41 -201l-76 -31z" />
<glyph unicode="j" horiz-adv-x="542" d="M-123 -254q107 65 161 153.5t81 256.5l131 821l164 41l-131 -858q-25 -158 -72 -264t-108.5 -165.5t-155.5 -107.5zM225 1346l8 47l205 67l29 -30l-41 -201l-78 -31z" />
<glyph unicode="k" horiz-adv-x="1026" d="M72 0l270 1544l170 41l-125 -713l8 -4q83 67 182.5 108.5t198.5 41.5q74 0 120 -61t46 -138q0 -130 -79.5 -233t-213.5 -160l219 -395l-137 -66l-266 471l6 21q305 118 305 303q0 46 -26.5 75t-77.5 29q-145 0 -316 -155l-123 -709h-161z" />
<glyph unicode="l" horiz-adv-x="546" d="M100 119q0 20 9 76l237 1349l168 43l-231 -1327q-9 -61 -9 -82q0 -65 45 -125l-151 -84q-68 47 -68 150z" />
<glyph unicode="m" horiz-adv-x="1677" d="M98 0l115 659q14 86 14 148q0 82 -37 135l166 76q22 -24 36 -71t14 -89l6 -4q198 164 381 164q71 0 112 -44t47 -116l6 -4q81 72 186 118t206 46q80 0 119.5 -53.5t39.5 -135.5q0 -40 -12 -114l-76 -455q-8 -54 -8 -82q0 -65 45 -125l-153 -84q-68 47 -68 150q0 26 8 76 l86 499q6 34 6 72q0 98 -104 98q-129 0 -291 -149l-127 -715h-160l121 694q6 34 6 74q0 52 -26 74t-80 22q-125 0 -291 -153l-125 -711h-162z" />
<glyph unicode="n" horiz-adv-x="1150" d="M98 0l115 659q14 86 14 148q0 82 -37 135l166 76q22 -24 36 -71t14 -89l6 -4q87 69 199 116.5t212 47.5q82 0 121 -57t39 -132q0 -40 -12 -114l-78 -455q-8 -54 -8 -82q0 -65 45 -125l-152 -84q-67 46 -67 150q0 26 8 76l86 499q6 34 6 72q0 42 -24 70t-72 28 q-81 0 -170 -45t-160 -108l-125 -711h-162z" />
<glyph unicode="o" horiz-adv-x="1034" d="M74 358q0 99 22.5 194t68.5 179.5t110.5 148t154 101t193.5 37.5q76 0 135.5 -31.5t95.5 -86t54 -122.5t18 -145q0 -95 -21 -189t-64.5 -180t-104.5 -151.5t-147 -104.5t-186 -39q-111 0 -186.5 53t-109 138.5t-33.5 197.5zM246 414q0 -52 10 -101t31.5 -95.5t62 -74.5 t94.5 -28q67 0 121.5 31t88.5 80.5t57.5 114t33 127t9.5 124.5q0 53 -9.5 99.5t-30.5 89t-61 67t-94 24.5q-76 0 -138 -44.5t-99 -114.5t-56.5 -147.5t-19.5 -151.5z" />
<glyph unicode="p" horiz-adv-x="1077" d="M8 -451l195 1110q12 73 12 148q0 82 -37 135l166 76q23 -23 36 -69.5t13 -90.5l8 -2q81 73 182.5 117.5t204.5 44.5q49 0 86 -27.5t57 -72.5t29 -92.5t9 -96.5q0 -107 -26.5 -215.5t-80 -206t-125.5 -173.5t-170.5 -120.5t-208.5 -44.5q-43 0 -112 15l-70 -396zM272 131 q58 -18 123 -18q84 0 153.5 35t115 91.5t77 131t45 150.5t13.5 153q0 190 -119 190q-142 0 -307 -157z" />
<glyph unicode="q" horiz-adv-x="1046" d="M74 258q0 135 43 269t119.5 244t194.5 178.5t255 68.5q66 0 139.5 -22.5t118.5 -57.5l-168 -948q-22 -138 -22 -228q0 -92 26 -149l-166 -49q-28 61 -28 166q0 92 24 215l33 186l-6 2q-198 -164 -383 -164q-49 0 -86 27.5t-56.5 73t-28.5 92.5t-9 96zM246 311 q0 -186 116 -186q136 0 306 162l100 557q-56 24 -119 24q-84 0 -153.5 -34.5t-114.5 -90t-76.5 -129.5t-45 -150t-13.5 -153z" />
<glyph unicode="r" horiz-adv-x="729" d="M98 0l119 694q12 74 12 113q0 83 -39 135l168 76q22 -24 33.5 -69.5t11.5 -86.5l7 -2q114 158 340 158v-174l-17 -13q-30 15 -106 15q-73 0 -136 -35t-106 -84l-125 -727h-162z" />
<glyph unicode="s" horiz-adv-x="808" d="M-8 78l86 129q42 -40 106.5 -72.5t137.5 -32.5q79 0 127.5 41.5t48.5 116.5q0 64 -37.5 99.5t-138.5 89.5q-46 25 -75 45t-57 49.5t-41.5 68t-13.5 88.5q0 152 105 235t270 83q133 0 219 -62l-76 -135q-92 66 -188 66q-74 0 -119 -40.5t-45 -113.5q0 -32 8.5 -56 t31.5 -45.5t46 -36.5t68 -40q42 -23 66.5 -38t55.5 -39.5t47.5 -47.5t28 -56.5t11.5 -72.5q0 -159 -102 -245.5t-273 -86.5q-92 0 -173.5 33.5t-123.5 75.5z" />
<glyph unicode="t" horiz-adv-x="690" d="M80 858l70 129h90l51 281l139 35l25 -23l-54 -293h308l-64 -129h-268l-78 -467q-12 -78 -12 -121q0 -80 30.5 -118.5t104.5 -38.5q31 0 70 10.5t55 19.5l37 -135q-97 -39 -207 -39q-141 0 -202.5 58t-61.5 180q0 48 22 182l80 469h-135z" />
<glyph unicode="u" horiz-adv-x="1081" d="M104 158q0 34 13 114l123 705l168 35l-125 -719q-7 -40 -7 -72q0 -53 24 -74.5t75 -21.5q74 0 156 45.5t153 108.5l121 696l168 37l-121 -684q-16 -102 -16 -154q0 -78 32 -133l-159 -72q-24 24 -35.5 71t-11.5 89l-7 4q-101 -78 -194.5 -121t-196.5 -43q-160 0 -160 189 z" />
<glyph unicode="v" horiz-adv-x="937" d="M96 979l168 39l105 -832h10q184 247 263 419t79 261q0 55 -33 123l158 29q37 -55 37 -137q0 -236 -467 -881h-178z" />
<glyph unicode="w" horiz-adv-x="1441" d="M115 985l159 31l74 -805h10l344 741l123 25l101 -766h10q272 410 272 655q0 57 -32 123l157 29q37 -55 37 -137q0 -263 -403 -881h-154l-90 698h-10l-338 -698h-154z" />
<glyph unicode="x" horiz-adv-x="901" d="M-53 31l395 471l-221 438l145 74l203 -402l324 402l133 -51l-396 -474l234 -458l-156 -56l-202 400l-330 -400z" />
<glyph unicode="y" horiz-adv-x="929" d="M70 -387l227 387h-70l-121 983l168 31l99 -869h8l405 869l150 -39l-725 -1424z" />
<glyph unicode="z" horiz-adv-x="768" d="M-80 49l612 805h-430l68 133h543l45 -88l-594 -729l502 -61l-35 -140l-570 74l-61 -66z" />
<glyph unicode="{" horiz-adv-x="774" d="M113 555l12 72q128 41 175 108.5t56 202.5l15 215q5 82 20.5 142t48.5 111t92.5 77t145.5 26q64 0 139 -6l-18 -102q-81 0 -133.5 -17.5t-81 -57t-40 -87t-16.5 -123.5l-16 -223q-8 -127 -50.5 -193.5t-162.5 -107.5q131 -49 131 -166q0 -50 -27 -156l-71 -252 q-27 -97 -27 -145q0 -37 6.5 -59.5t26 -42.5t60.5 -28.5t106 -8.5l-17 -103q-50 -4 -141 -4q-119 0 -168 43t-49 125q0 79 33 187l67 245q2 7 8.5 31t10 38t7 34.5t3.5 34.5q0 140 -145 190z" />
<glyph unicode="|" horiz-adv-x="700" d="M274 -436v1892h152v-1892h-152z" />
<glyph unicode="}" horiz-adv-x="749" d="M-121 -367l17 103q81 0 133 17.5t81 56.5t41 86t17 122l18 269q9 126 54 192.5t166 110.5q-132 44 -132 164q0 58 29 155l59 207q27 97 27 148q0 37 -5.5 59t-24.5 42t-59.5 29t-106.5 9l16 102q46 4 141 4q120 0 167.5 -42t47.5 -124q0 -74 -30 -188l-60 -203 q-29 -113 -29 -137q0 -139 146 -188l-10 -72q-130 -40 -179.5 -109.5t-58.5 -203.5l-18 -258q-5 -65 -16 -115.5t-33 -97.5t-55 -77.5t-84.5 -48.5t-119.5 -18q-70 0 -139 6z" />
<glyph unicode="~" horiz-adv-x="980" d="M123 1032q76 122 142 165.5t141 43.5q62 0 182 -59q96 -49 151 -49q53 0 88.5 24t79.5 76l70 -51q-66 -113 -131.5 -157t-134.5 -44q-65 0 -191 61q-54 29 -89.5 40.5t-78.5 11.5q-46 0 -84 -28.5t-80 -86.5z" />
<glyph unicode="&#xa1;" horiz-adv-x="466" d="M-98 -422l207 954l114 33l19 -16l-129 -942l-195 -41zM96 913q50 95 164 107q45 -17 76.5 -62.5t34.5 -97.5q-15 -40 -59 -71t-97 -37q-46 15 -78.5 59.5t-40.5 101.5z" />
<glyph unicode="&#xa2;" horiz-adv-x="868" d="M74 463q0 102 28 202t81 188t137.5 152.5t189.5 88.5l35 209l102 -13l-31 -184q119 -3 197 -59l-76 -136q-63 44 -147 47l-117 -671q100 26 221 139l82 -98q-162 -154 -327 -187l-41 -227l-103 12l37 205q-134 4 -201 92.5t-67 239.5zM240 514q0 -112 29.5 -166t99.5 -63 l114 663q-76 -24 -133 -98.5t-83.5 -162.5t-26.5 -173z" />
<glyph unicode="&#xa3;" d="M-12 0l59 135q51 5 89.5 25t64 55.5t42 78t25.5 103.5t12 120t3 138h-146l68 123h74q0 101 19.5 194t61 175.5t102 143.5t149 96.5t194.5 35.5q128 0 213 -37l-60 -139q-83 37 -186 37q-73 0 -131 -31.5t-94 -82t-59.5 -118.5t-32.5 -135.5t-9 -138.5h433l-56 -123h-372 q0 -217 -34 -339t-122 -171l6 -10h586l-62 -135h-837z" />
<glyph unicode="&#xa4;" d="M133 408l105 106q-58 83 -58 186q0 106 60 183l-101 102l84 80l101 -100q81 59 184 59q107 0 184 -59l101 102l86 -80l-105 -106q60 -79 60 -181q0 -104 -60 -186l103 -102l-84 -80l-101 98q-81 -59 -186 -59q-107 0 -182 59l-105 -102zM309 696q0 -84 57 -143t138 -59 q84 0 143.5 60.5t59.5 145.5q0 84 -58.5 142.5t-140.5 58.5t-140.5 -60t-58.5 -145z" />
<glyph unicode="&#xa5;" d="M49 293l55 121h263l30 164h-297l54 118h204l-231 686l147 52l242 -695l461 695l133 -84l-467 -654h260l-53 -118h-291l-29 -164h324l-53 -121h-291l-51 -293h-164l51 293h-297z" />
<glyph unicode="&#xa6;" horiz-adv-x="700" d="M254 297h152v-733h-152v733zM254 725v731h152v-731h-152z" />
<glyph unicode="&#xa7;" d="M-59 -188l127 104q60 -86 127.5 -126t152.5 -40q93 0 159 54t66 145q0 84 -47.5 133.5t-193.5 124.5q-66 34 -110.5 62.5t-86 67.5t-62 86.5t-20.5 104.5q0 133 83.5 222.5t207.5 121.5q-106 75 -106 203q0 89 37 159.5t98.5 113t137 64.5t157.5 22q192 0 297 -86 l-99 -138q-99 82 -221 82q-98 0 -163.5 -49t-65.5 -131q0 -74 43 -113.5t186 -111.5q148 -74 220.5 -152t72.5 -192q0 -67 -23 -125.5t-63 -101t-84.5 -73t-95.5 -50.5q80 -73 80 -195q0 -121 -57 -210.5t-153 -134t-216 -44.5q-132 0 -222 50.5t-163 152.5zM229 563 q0 -86 75 -147t253 -142q75 24 139 87t64 143q0 88 -69 154.5t-230 138.5q-98 -26 -165 -90t-67 -144z" />
<glyph unicode="&#xa8;" horiz-adv-x="1030" d="M303 1294q0 46 30.5 77.5t76.5 31.5q45 0 75.5 -31.5t30.5 -77.5t-30 -76t-76 -30t-76.5 30t-30.5 76zM682 1294q0 46 29.5 77.5t74.5 31.5q46 0 77.5 -31.5t31.5 -77.5q0 -45 -31.5 -75.5t-77.5 -30.5t-75 30t-29 76z" />
<glyph unicode="&#xa9;" horiz-adv-x="1652" d="M86 549q0 181 64.5 344t176.5 282t271 189t340 70q262 0 429 -156t167 -416q0 -184 -62.5 -348t-172.5 -284t-270.5 -190.5t-346.5 -70.5q-169 0 -304 70.5t-213.5 203.5t-78.5 306zM217 567q0 -212 137 -347.5t348 -135.5q153 0 285 59.5t222 161.5t141 239t51 290 q0 213 -135 348t-346 135q-155 0 -287.5 -59.5t-223 -161t-141.5 -238.5t-51 -291zM438 584q0 152 57 275.5t166.5 197t251.5 73.5q123 0 207 -43l-51 -131q-71 43 -174 43q-92 0 -162.5 -53.5t-106.5 -139.5t-36 -188q0 -106 53.5 -162.5t147.5 -56.5q110 0 229 56 l-45 -150q-86 -37 -207 -37q-151 0 -240.5 83t-89.5 233z" />
<glyph unicode="&#xaa;" horiz-adv-x="696" d="M61 967q0 82 27.5 164t76.5 150t125.5 110.5t166.5 42.5q45 0 95.5 -15t86.5 -41q-5 -26 -33.5 -177.5t-40.5 -219.5q-4 -24 -4 -39q0 -25 11 -43t42 -37l-102 -80q-64 27 -82 90h-10q-97 -90 -230 -90q-37 0 -64 19t-40 49t-19 59t-6 58zM199 1001q0 -19 1.5 -33t7 -30 t18 -24.5t32.5 -8.5q85 0 176 84l60 316q-36 8 -60 8q-60 0 -106.5 -28t-73.5 -74.5t-41 -100t-14 -109.5z" />
<glyph unicode="&#xab;" horiz-adv-x="831" d="M18 485l375 365l84 -94l-299 -283l189 -272l-105 -74zM373 485l375 365l83 -94l-299 -283l191 -272l-107 -74z" />
<glyph unicode="&#xac;" d="M197 666v137h624v-346h-127v209h-497z" />
<glyph unicode="&#xad;" horiz-adv-x="706" d="M82 461v153h522v-153h-522z" />
<glyph unicode="&#xae;" horiz-adv-x="739" d="M123 1071q0 158 99 260.5t253 102.5q106 0 176 -62.5t70 -169.5q0 -159 -96.5 -259.5t-251.5 -100.5q-107 0 -178.5 62t-71.5 167zM195 1083q0 -83 53 -131.5t135 -48.5q123 0 193.5 80.5t70.5 206.5q0 84 -51 133t-131 49q-121 0 -195.5 -81.5t-74.5 -207.5zM276 983 l64 303q40 8 92 8q115 0 115 -75q0 -36 -23 -64.5t-59 -40.5l76 -131h-82l-66 119h-20l-25 -119h-72zM385 1157q44 0 66 12t22 41q0 15 -12.5 24t-32.5 9q-3 0 -12.5 -1t-12.5 -1z" />
<glyph unicode="&#xaf;" horiz-adv-x="968" d="M201 1298l73 105h482l12 -25l-66 -98h-487z" />
<glyph unicode="&#xb0;" horiz-adv-x="757" d="M168 1174q0 110 75 184t183 74q113 0 188.5 -74t75.5 -184q0 -109 -77 -185t-187 -76t-184 76t-74 185zM291 1174q0 -66 37 -106t98 -40q63 0 101 40t38 106q0 65 -37.5 105t-101.5 40q-61 0 -98 -40t-37 -105z" />
<glyph unicode="&#xb1;" d="M170 778v121h262v277h133v-277h264v-121h-264v-276h-133v276h-262zM188 184v138h623v-138h-623z" />
<glyph unicode="&#xb2;" horiz-adv-x="663" d="M55 926l168 137q318 253 318 385q0 53 -34 79.5t-87 26.5q-85 0 -170 -55l-49 117q102 63 252 63q62 0 113 -18t87.5 -65.5t36.5 -118.5q0 -86 -58.5 -177.5t-113.5 -143t-183 -157.5q-27 -23 -40 -34h315l-51 -121h-500z" />
<glyph unicode="&#xb3;" horiz-adv-x="671" d="M59 903l70 111q93 -78 186 -78q90 0 141.5 46t51.5 126q0 60 -39 90.5t-104 30.5q-49 0 -121 -10l-23 59l256 250h-258l-18 31l41 90h463l18 -50l-260 -260q81 -12 136.5 -64.5t55.5 -144.5q0 -142 -99.5 -229.5t-250.5 -87.5q-161 0 -246 90z" />
<glyph unicode="&#xb4;" horiz-adv-x="1017" d="M461 1225l340 282l86 -114l-4 -33l-379 -201z" />
<glyph unicode="&#xb5;" horiz-adv-x="1060" d="M-72 -268q60 145 116 316t77 298l110 631l168 35l-125 -719q-6 -35 -6 -72q0 -53 24 -74.5t75 -21.5q74 0 156 45.5t153 108.5l121 696l168 37l-121 -684q-17 -108 -17 -154q0 -76 33 -133l-160 -72q-24 24 -35.5 71t-11.5 89l-6 4q-203 -162 -358 -162q-92 0 -127 62 l-8 -4q-23 -127 -64 -262z" />
<glyph unicode="&#xb6;" horiz-adv-x="1144" d="M109 752q0 325 170.5 488t490.5 163h315l-317 -1806l-115 -48l314 1776h-107l-303 -1731l-115 -45l158 883q-124 0 -212 15.5t-152.5 51.5t-95.5 98.5t-31 154.5zM475 702q0 -96 36 -137t103 -41l142 801q-91 0 -148.5 -67.5t-85.5 -229.5l-28 -164q-19 -104 -19 -162z " />
<glyph unicode="&#xb7;" horiz-adv-x="595" d="M143 776q18 42 61 74.5t93 36.5q44 -18 77 -62.5t40 -99.5q-23 -44 -64.5 -73.5t-95.5 -35.5q-44 21 -76 66t-35 94z" />
<glyph unicode="&#xb8;" horiz-adv-x="589" d="M135 -369l39 109q22 -10 62 -10q26 0 43.5 18.5t17.5 44.5q0 23 -19.5 39t-46.5 21l99 167h78l-52 -90q31 -10 47.5 -40t16.5 -66q0 -97 -74 -146t-178 -49q-23 0 -33 2z" />
<glyph unicode="&#xb9;" horiz-adv-x="534" d="M127 1466l41 121l389 103l-149 -850h-144l121 680l-240 -70z" />
<glyph unicode="&#xba;" horiz-adv-x="645" d="M43 1028q0 75 23.5 146t66.5 129.5t113 94.5t155 36q101 0 153 -71.5t52 -172.5q0 -72 -22 -143t-63 -131t-108 -97t-149 -37q-111 0 -166 69t-55 177zM180 1061q0 -67 27 -114.5t84 -47.5q61 0 103 43.5t58.5 101t16.5 121.5q0 67 -26 109.5t-83 42.5q-55 0 -97.5 -41.5 t-62.5 -99t-20 -115.5z" />
<glyph unicode="&#xbb;" horiz-adv-x="833" d="M-4 221l299 281l-189 274l105 74l246 -358l-377 -365zM352 221l299 281l-190 274l106 74l244 -358l-375 -365z" />
<glyph unicode="&#xbc;" horiz-adv-x="1492" d="M113 1221l41 120l389 103l-150 -850h-143l121 680l-240 -70zM244 37l827 1397l115 -66l-826 -1399zM745 150l19 96l465 573l141 29l-104 -584h106l-61 -114h-64l-26 -150h-131l26 150h-371zM924 264h211l61 338z" />
<glyph unicode="&#xbd;" horiz-adv-x="1597" d="M113 1221l41 120l389 103l-150 -850h-143l121 680l-240 -70zM244 37l827 1397l115 -66l-826 -1399zM840 82l168 137q315 251 315 385q0 54 -33 80.5t-86 26.5q-83 0 -170 -56l-49 117q98 64 250 64q99 0 168.5 -49.5t69.5 -153.5q0 -66 -25 -126.5t-87.5 -129t-104 -106 t-139.5 -118.5q-25 -21 -38 -32h314l-52 -121h-497z" />
<glyph unicode="&#xbe;" horiz-adv-x="1619" d="M59 657l70 111q93 -78 186 -78q90 0 141.5 46t51.5 126q0 60 -39 90.5t-104 30.5q-49 0 -121 -10l-23 59l256 250h-258l-18 31l41 90h463l18 -49l-260 -260q81 -12 136.5 -64.5t55.5 -144.5q0 -142 -99.5 -230t-250.5 -88q-161 0 -246 90zM373 37l825 1397l117 -66 l-826 -1399zM874 150l17 96l467 573l139 29l-102 -584h104l-59 -114h-66l-26 -150h-131l26 150h-369zM1051 264h213l61 338z" />
<glyph unicode="&#xbf;" horiz-adv-x="712" d="M-117 -150q0 198 106 327t283 192l-28 176l112 35l121 -254l-14 -27q-95 -26 -163.5 -58t-123.5 -79t-82.5 -113.5t-27.5 -154.5q0 -92 54.5 -144.5t143.5 -52.5q117 0 240 65l43 -122q-67 -43 -156 -64.5t-168 -21.5q-67 0 -125.5 15.5t-108 48.5t-78 92.5t-28.5 139.5z M324 913q22 44 63.5 72.5t95.5 32.5q45 -17 76.5 -61.5t36.5 -94.5q-18 -39 -62 -70.5t-94 -35.5q-45 15 -76.5 59t-39.5 98z" />
<glyph unicode="&#xc0;" horiz-adv-x="1126" d="M-119 16l727 1381l121 26l254 -1415l-170 -16l-84 467l-469 -56l-215 -419zM334 555l373 43l-91 508zM406 1618l57 137l377 -158l-25 -73l-395 63z" />
<glyph unicode="&#xc1;" horiz-adv-x="1126" d="M-119 16l727 1381l121 26l254 -1415l-170 -16l-84 467l-469 -56l-215 -419zM334 555l373 43l-91 508zM510 1597l416 164l45 -141l-17 -29l-426 -71z" />
<glyph unicode="&#xc2;" horiz-adv-x="1126" d="M-119 16l727 1381l121 26l254 -1415l-170 -16l-84 467l-469 -56l-215 -419zM334 555l373 43l-91 508zM360 1589l363 230l250 -232l-47 -67l-234 125l-291 -125z" />
<glyph unicode="&#xc3;" horiz-adv-x="1136" d="M-119 16l727 1381l121 26l254 -1415l-170 -16l-84 467l-469 -56l-215 -419zM334 555l373 43l-91 508zM412 1585q56 95 98.5 130.5t89.5 35.5q57 0 137 -37q63 -26 111 -26q51 0 92 69l84 -37q-55 -98 -97 -135t-83 -37q-57 0 -146 39q-61 27 -110 27q-30 0 -49.5 -16 t-42.5 -54z" />
<glyph unicode="&#xc4;" horiz-adv-x="1134" d="M-119 16l727 1381l121 26l254 -1415l-170 -16l-84 467l-469 -56l-215 -419zM334 555l373 43l-91 508zM385 1626q0 47 33 80t80 33t79.5 -33t32.5 -80t-32.5 -80t-79.5 -33t-80 33t-33 80zM782 1626q0 47 33 80t80 33t80 -33t33 -80t-33 -80t-80 -33t-80 33t-33 80z" />
<glyph unicode="&#xc5;" horiz-adv-x="1126" d="M-119 16l727 1381l121 26l254 -1415l-170 -16l-84 467l-469 -56l-215 -419zM334 555l373 43l-91 508zM494 1708q0 84 58 134t144 50q88 0 147.5 -49.5t59.5 -134.5q0 -84 -59.5 -133t-147.5 -49q-86 0 -144 49.5t-58 132.5zM602 1708q0 -35 26.5 -55.5t67.5 -20.5 q42 0 71.5 20.5t29.5 55.5q0 38 -28.5 57t-72.5 19q-42 0 -68 -19.5t-26 -56.5z" />
<glyph unicode="&#xc6;" horiz-adv-x="1603" d="M-141 41l1003 1362h723l-35 -146h-428l-82 -466h416l-37 -146h-405l-88 -500h479l-55 -145h-625l84 465l-469 -31l-336 -450zM438 575l396 29l118 653h-10z" />
<glyph unicode="&#xc7;" horiz-adv-x="1091" d="M82 492q0 204 60 379t166.5 299t258 194t328.5 70q128 0 213 -29l-45 -154q-103 35 -201 35q-136 0 -249 -62t-186 -166t-113 -236.5t-40 -276.5q0 -202 96.5 -315t270.5 -113q151 0 268 47l-49 -168q-100 -27 -250 -27q-31 0 -49 2l-24 -43q32 -11 49.5 -42.5 t17.5 -69.5q0 -101 -79 -154t-187 -53q-23 0 -33 2l41 117q20 -11 64 -11q28 0 45.5 18.5t17.5 47.5q0 25 -19.5 41.5t-47.5 21.5l77 134q-188 32 -294.5 161t-106.5 351z" />
<glyph unicode="&#xc8;" horiz-adv-x="999" d="M76 0l246 1403h657l-35 -146h-469l-82 -464h457l-37 -146h-446l-88 -502h520l-56 -145h-667zM449 1618l57 137l377 -158l-25 -73l-395 63z" />
<glyph unicode="&#xc9;" horiz-adv-x="999" d="M76 0l246 1403h657l-35 -146h-469l-82 -464h457l-37 -146h-446l-88 -502h520l-56 -145h-667zM444 1597l416 164l45 -141l-16 -29l-426 -71z" />
<glyph unicode="&#xca;" horiz-adv-x="999" d="M76 0l246 1403h657l-35 -146h-469l-82 -464h457l-37 -148h-446l-88 -500h520l-56 -145h-667zM352 1589l365 230l248 -232l-47 -67l-234 125l-291 -125z" />
<glyph unicode="&#xcb;" horiz-adv-x="1003" d="M76 0l246 1403h657l-35 -146h-469l-82 -464h457l-37 -146h-446l-88 -502h520l-56 -145h-667zM360 1645q0 47 33 79.5t80 32.5t80 -32.5t33 -79.5t-33 -80t-80 -33t-80 33t-33 80zM760 1645q0 47 31.5 79.5t78.5 32.5t80 -32.5t33 -79.5t-33 -80t-80 -33t-78.5 32.5 t-31.5 80.5z" />
<glyph unicode="&#xcc;" horiz-adv-x="600" d="M76 0l246 1403h178l-246 -1403h-178zM156 1618l57 137l377 -158l-25 -73l-395 63z" />
<glyph unicode="&#xcd;" horiz-adv-x="579" d="M76 0l246 1403h178l-246 -1403h-178zM274 1597l416 164l45 -141l-16 -29l-424 -71z" />
<glyph unicode="&#xce;" horiz-adv-x="591" d="M76 0l246 1403h178l-246 -1403h-178zM174 1589l303 230l213 -244l-55 -55l-189 125l-229 -125z" />
<glyph unicode="&#xcf;" horiz-adv-x="608" d="M76 0l246 1403h178l-246 -1403h-178zM164 1645q0 47 32.5 79.5t79.5 32.5t79 -32.5t32 -79.5t-32 -80t-79 -33t-79.5 33t-32.5 80zM485 1645q0 47 32 79.5t79 32.5t80 -32.5t33 -79.5t-33 -80t-80 -33t-79 33t-32 80z" />
<glyph unicode="&#xd0;" horiz-adv-x="1357" d="M33 678l49 129h135l107 596q140 31 294 31q95 0 180 -14.5t168.5 -52t144 -95.5t97.5 -151.5t37 -213.5q0 -219 -69.5 -391.5t-197 -285t-304.5 -171.5t-393 -59h-205l119 678h-162zM281 143q132 0 246 25t212 81t167 138.5t108 203.5t39 271q0 106 -35 190t-96.5 136.5 t-141 80t-170.5 27.5q-78 0 -131 -16l-84 -473h318l-41 -129h-299z" />
<glyph unicode="&#xd1;" horiz-adv-x="1400" d="M76 0l243 1386l152 37l219 -510q187 -442 254 -608l8 2l168 1096h176l-247 -1403h-148l-158 362q-290 681 -313 740l-8 -2l-170 -1100h-176zM539 1579q57 96 99 131t89 35q53 0 152 -37q79 -27 120 -27q27 0 48 17.5t45 54.5l84 -37q-54 -98 -97 -135t-84 -37 q-64 0 -157 39q-69 27 -121 27q-30 0 -50.5 -16.5t-43.5 -55.5z" />
<glyph unicode="&#xd2;" horiz-adv-x="1392" d="M82 477q0 129 28 261t88.5 257.5t145 222.5t208.5 156.5t269 59.5q206 0 332.5 -138t126.5 -364q0 -143 -29 -280.5t-90.5 -261.5t-148.5 -217.5t-211.5 -148.5t-270.5 -55q-209 0 -328.5 140t-119.5 368zM274 524q0 -67 10.5 -126t34 -111t58.5 -89.5t87.5 -59 t117.5 -21.5q108 0 196 50t144 130t94.5 184t54.5 207t16 205q0 176 -77.5 284.5t-237.5 108.5q-87 0 -161.5 -35t-128 -95t-94.5 -136.5t-65.5 -163t-36.5 -170t-12 -162.5zM627 1618l55 137l379 -158l-27 -73l-395 63z" />
<glyph unicode="&#xd3;" horiz-adv-x="1392" d="M82 477q0 129 28 261t88.5 257.5t145 222.5t208.5 156.5t269 59.5q206 0 332.5 -138t126.5 -364q0 -143 -29 -280.5t-90.5 -261.5t-148.5 -217.5t-211.5 -148.5t-270.5 -55q-209 0 -328.5 140t-119.5 368zM274 524q0 -67 10.5 -126t34 -111t58.5 -89.5t87.5 -59 t117.5 -21.5q108 0 196 50t144 130t94.5 184t54.5 207t16 205q0 176 -77.5 284.5t-237.5 108.5q-87 0 -161.5 -35t-128 -95t-94.5 -136.5t-65.5 -163t-36.5 -170t-12 -162.5zM668 1597l415 164l45 -141l-14 -29l-426 -71z" />
<glyph unicode="&#xd4;" horiz-adv-x="1392" d="M82 477q0 129 28 261t88.5 257.5t145 222.5t208.5 156.5t269 59.5q206 0 332.5 -138t126.5 -364q0 -143 -29 -280.5t-90.5 -261.5t-148.5 -217.5t-211.5 -148.5t-270.5 -55q-209 0 -328.5 140t-119.5 368zM274 524q0 -67 10.5 -126t34 -111t58.5 -89.5t87.5 -59 t117.5 -21.5q108 0 196 50t144 130t94.5 184t54.5 207t16 205q0 176 -77.5 284.5t-237.5 108.5q-87 0 -161.5 -35t-128 -95t-94.5 -136.5t-65.5 -163t-36.5 -170t-12 -162.5zM559 1589l363 230l249 -232l-47 -67l-233 125l-291 -125z" />
<glyph unicode="&#xd5;" horiz-adv-x="1392" d="M82 477q0 129 28 261t88.5 257.5t145 222.5t208.5 156.5t269 59.5q206 0 332.5 -138t126.5 -364q0 -143 -29 -280.5t-90.5 -261.5t-148.5 -217.5t-211.5 -148.5t-270.5 -55q-209 0 -328.5 140t-119.5 368zM274 524q0 -67 10.5 -126t34 -111t58.5 -89.5t87.5 -59 t117.5 -21.5q108 0 196 50t144 130t94.5 184t54.5 207t16 205q0 176 -77.5 284.5t-237.5 108.5q-87 0 -161.5 -35t-128 -95t-94.5 -136.5t-65.5 -163t-36.5 -170t-12 -162.5zM561 1597q55 96 98 131t89 35q14 0 29.5 -2t33.5 -7t29 -8.5t32.5 -10.5t26.5 -9q76 -26 123 -26 q49 0 90 72l84 -37q-54 -98 -96.5 -135t-83.5 -37q-57 0 -158 36q-66 29 -121 29q-30 0 -50.5 -17t-41.5 -57z" />
<glyph unicode="&#xd6;" horiz-adv-x="1392" d="M82 477q0 129 28 261t88.5 257.5t145 222.5t208.5 156.5t269 59.5q206 0 332.5 -138t126.5 -364q0 -143 -29 -280.5t-90.5 -261.5t-148.5 -217.5t-211.5 -148.5t-270.5 -55q-209 0 -328.5 140t-119.5 368zM274 524q0 -67 10.5 -126t34 -111t58.5 -89.5t87.5 -59 t117.5 -21.5q108 0 196 50t144 130t94.5 184t54.5 207t16 205q0 176 -77.5 284.5t-237.5 108.5q-87 0 -161.5 -35t-128 -95t-94.5 -136.5t-65.5 -163t-36.5 -170t-12 -162.5zM561 1645q0 47 33 79.5t80 32.5t78.5 -32.5t31.5 -79.5q0 -48 -31.5 -80.5t-78.5 -32.5t-80 33 t-33 80zM958 1645q0 47 33 79.5t80 32.5t80 -32.5t33 -79.5t-33 -80t-80 -33t-80 33t-33 80z" />
<glyph unicode="&#xd7;" d="M195 928l81 84l228 -230l225 230l82 -84l-223 -232l223 -229l-82 -84l-225 227l-223 -227l-82 84l221 229z" />
<glyph unicode="&#xd8;" horiz-adv-x="1396" d="M14 -4l148 168q-80 132 -80 313q0 129 28 261t88.5 257.5t145 222.5t208.5 156.5t269 59.5q202 0 332 -140l127 144l80 -72l-141 -162q61 -119 61 -272q0 -119 -21 -234.5t-61 -223.5t-104 -199.5t-145 -160t-189 -107t-232 -38.5q-178 0 -299 111l-137 -156zM266 524 q0 -117 33 -205l733 836q-88 139 -260 139q-103 0 -190 -51t-144 -132t-97 -184.5t-57.5 -205t-17.5 -197.5zM350 219q82 -110 232 -110q108 0 197 51t146.5 132t97 186t56.5 209.5t17 205.5q0 84 -17 151z" />
<glyph unicode="&#xd9;" horiz-adv-x="1335" d="M106 283q0 91 17 184l166 936h178l-160 -895q-14 -82 -14 -170q0 -213 188 -213q95 0 193 51t182 131l195 1096h180l-248 -1403h-180l28 158q-113 -96 -213.5 -142.5t-230.5 -46.5q-138 0 -209.5 81t-71.5 233zM524 1618l58 137l376 -158l-24 -73l-395 63z" />
<glyph unicode="&#xda;" horiz-adv-x="1335" d="M106 283q0 91 17 184l166 936h178l-160 -895q-14 -82 -14 -170q0 -213 188 -213q95 0 193 51t182 131l195 1096h180l-248 -1403h-180l28 158q-113 -96 -213.5 -142.5t-230.5 -46.5q-138 0 -209.5 81t-71.5 233zM584 1597l415 164l45 -141l-16 -29l-426 -71z" />
<glyph unicode="&#xdb;" horiz-adv-x="1335" d="M106 283q0 91 17 184l166 936h178l-160 -895q-14 -82 -14 -170q0 -213 188 -213q95 0 193 51t182 131l195 1096h180l-248 -1403h-180l28 158q-113 -96 -213.5 -142.5t-230.5 -46.5q-138 0 -209.5 81t-71.5 233zM465 1589l364 230l248 -232l-47 -67l-231 125l-291 -125z " />
<glyph unicode="&#xdc;" horiz-adv-x="1335" d="M106 283q0 91 17 184l166 936h178l-160 -895q-14 -82 -14 -170q0 -213 188 -213q95 0 193 51t182 131l195 1096h180l-248 -1403h-180l28 158q-113 -96 -213.5 -142.5t-230.5 -46.5q-138 0 -209.5 81t-71.5 233zM471 1645q0 47 33 79.5t80 32.5t78.5 -32.5t31.5 -79.5 q0 -48 -31.5 -80.5t-78.5 -32.5t-80 33t-33 80zM868 1645q0 47 33 79.5t80 32.5t80 -32.5t33 -79.5t-33 -80t-80 -33t-80 33t-33 80z" />
<glyph unicode="&#xdd;" horiz-adv-x="1019" d="M98 1389l172 38l234 -673l457 673l161 -59l-573 -786l-103 -582h-178l103 582zM438 1597l416 164l45 -141l-14 -29l-426 -71z" />
<glyph unicode="&#xde;" horiz-adv-x="1056" d="M76 0l246 1403h178l-41 -232q88 5 119 5q63 0 118.5 -8t111 -29.5t95 -56t64 -91t24.5 -129.5q0 -121 -37 -217.5t-100 -161t-151.5 -107.5t-187 -62t-210.5 -19l-51 -295h-178zM330 442q74 0 139.5 11.5t127 39.5t105.5 70.5t70.5 108.5t26.5 149q0 113 -67 165t-179 52 q-77 0 -119 -14z" />
<glyph unicode="&#xdf;" horiz-adv-x="1116" d="M-121 -246q108 63 160.5 144.5t77.5 246.5l127 848q13 89 40 169.5t73.5 154.5t107.5 128t146.5 86t185.5 32q118 0 191 -76.5t73 -188.5q0 -184 -162 -350q-139 -145 -139 -209q0 -58 27 -95t94 -87q143 -107 143 -240q0 -160 -109.5 -254t-275.5 -94q-182 0 -262 109 l98 117q73 -95 197 -95q83 0 135.5 50t52.5 129q0 53 -30 95.5t-95 92.5q-66 50 -104.5 103t-38.5 122q0 124 158 277q61 60 99 131.5t38 144.5q0 172 -158 172q-123 0 -209.5 -118.5t-113.5 -305.5l-127 -848q-17 -117 -47 -203.5t-74 -146t-93 -98.5t-116 -72z" />
<glyph unicode="&#xe0;" horiz-adv-x="1050" d="M74 258q0 135 42.5 269t119 244t194.5 178.5t256 68.5q66 0 139.5 -22.5t118.5 -57.5l-104 -604q-2 -13 -7 -38.5t-7.5 -45.5t-2.5 -37q0 -93 70 -137l-131 -107q-44 23 -73.5 68.5t-35.5 95.5h-8q-193 -164 -391 -164q-49 0 -86 27.5t-56.5 73t-28.5 92.5t-9 96z M244 313q0 -188 118 -188q144 0 304 156l102 563q-56 24 -121 24q-84 0 -153.5 -34t-114.5 -89.5t-76.5 -129t-45 -149.5t-13.5 -153zM442 1417l11 31l125 78l200 -352l-63 -48z" />
<glyph unicode="&#xe1;" horiz-adv-x="1050" d="M74 258q0 135 42.5 269t119 244t194.5 178.5t256 68.5q66 0 139.5 -22.5t118.5 -57.5l-104 -604q-2 -13 -7 -38.5t-7.5 -45.5t-2.5 -37q0 -93 70 -137l-131 -107q-44 23 -73.5 68.5t-35.5 95.5h-8q-193 -164 -391 -164q-49 0 -86 27.5t-56.5 73t-28.5 92.5t-9 96z M244 313q0 -188 118 -188q144 0 304 156l102 563q-56 24 -121 24q-84 0 -153.5 -34t-114.5 -89.5t-76.5 -129t-45 -149.5t-13.5 -153zM475 1225l342 282l84 -114l-4 -33l-379 -201z" />
<glyph unicode="&#xe2;" horiz-adv-x="1050" d="M74 258q0 135 42.5 269t119 244t194.5 178.5t256 68.5q66 0 139.5 -22.5t118.5 -57.5l-104 -604q-2 -13 -7 -38.5t-7.5 -45.5t-2.5 -37q0 -93 70 -137l-131 -107q-44 23 -73.5 68.5t-35.5 95.5h-8q-193 -164 -391 -164q-49 0 -86 27.5t-56.5 73t-28.5 92.5t-9 96z M244 313q0 -188 118 -188q144 0 304 156l102 563q-56 24 -121 24q-84 0 -153.5 -34t-114.5 -89.5t-76.5 -129t-45 -149.5t-13.5 -153zM354 1227l348 280l242 -288l-55 -60l-223 168l-269 -168z" />
<glyph unicode="&#xe3;" horiz-adv-x="1060" d="M74 258q0 135 42.5 269t119 244t194.5 178.5t256 68.5q66 0 139.5 -22.5t118.5 -57.5l-104 -604q-2 -13 -7 -38.5t-7.5 -45.5t-2.5 -37q0 -93 70 -137l-131 -107q-44 23 -73.5 68.5t-35.5 95.5h-8q-193 -164 -391 -164q-49 0 -86 27.5t-56.5 73t-28.5 92.5t-9 96z M244 313q0 -188 118 -188q144 0 304 156l102 563q-56 24 -121 24q-84 0 -153.5 -34t-114.5 -89.5t-76.5 -129t-45 -149.5t-13.5 -153zM381 1229q53 92 93.5 126t84.5 34q49 0 146 -33q68 -29 114 -29q48 0 88 72l80 -37q-52 -94 -92.5 -130t-79.5 -36q-52 0 -151 37 q-62 27 -115 27q-29 0 -49 -16.5t-39 -53.5z" />
<glyph unicode="&#xe4;" horiz-adv-x="1050" d="M74 258q0 135 42.5 269t119 244t194.5 178.5t256 68.5q66 0 139.5 -22.5t118.5 -57.5l-104 -604q-2 -13 -7 -38.5t-7.5 -45.5t-2.5 -37q0 -93 70 -137l-131 -107q-44 23 -73.5 68.5t-35.5 95.5h-8q-193 -164 -391 -164q-49 0 -86 27.5t-56.5 73t-28.5 92.5t-9 96z M244 313q0 -188 118 -188q144 0 304 156l102 563q-56 24 -121 24q-84 0 -153.5 -34t-114.5 -89.5t-76.5 -129t-45 -149.5t-13.5 -153zM334 1294q0 46 31 77.5t77 31.5q45 0 75 -31.5t30 -77.5t-29.5 -76t-75.5 -30t-77 30t-31 76zM713 1294q0 46 30.5 77.5t75.5 31.5 q46 0 76.5 -31.5t30.5 -77.5t-30.5 -76t-76.5 -30t-76 30t-30 76z" />
<glyph unicode="&#xe5;" horiz-adv-x="1050" d="M74 258q0 135 42.5 269t119 244t194.5 178.5t256 68.5q66 0 139.5 -22.5t118.5 -57.5l-104 -604q-2 -13 -7 -38.5t-7.5 -45.5t-2.5 -37q0 -93 70 -137l-131 -107q-44 23 -73.5 68.5t-35.5 95.5h-8q-193 -164 -391 -164q-49 0 -86 27.5t-56.5 73t-28.5 92.5t-9 96z M244 313q0 -188 118 -188q144 0 304 156l102 563q-56 24 -121 24q-84 0 -153.5 -34t-114.5 -89.5t-76.5 -129t-45 -149.5t-13.5 -153zM471 1368q0 80 56.5 136.5t136.5 56.5t138 -57t58 -136t-58 -135.5t-138 -56.5t-136.5 56.5t-56.5 135.5zM573 1368q0 -38 26.5 -65 t64.5 -27q39 0 67.5 27t28.5 65q0 39 -28 65.5t-68 26.5q-38 0 -64.5 -26t-26.5 -66z" />
<glyph unicode="&#xe6;" horiz-adv-x="1409" d="M74 240q0 143 43 281t119.5 249t194 179.5t255.5 68.5q61 0 120 -19t93 -47q85 66 205 66q107 0 174.5 -50.5t67.5 -146.5q0 -86 -31.5 -151t-87 -104t-124.5 -58t-149 -19q-36 0 -88 8t-84 19q-22 -71 -22 -186q0 -98 36 -157.5t103 -59.5q65 0 145 47.5t148 118.5 l86 -93q-217 -217 -436 -217q-85 0 -139.5 48t-79.5 120q-181 -168 -381 -168q-55 0 -94.5 44t-56.5 103.5t-17 123.5zM246 295q0 -72 23.5 -121t76.5 -49q63 0 133 42t119 101v25q0 158 53 309t125 236q-50 32 -127 32q-85 0 -154 -34.5t-114.5 -91t-76.5 -132.5 t-44.5 -155t-13.5 -162zM817 635q91 -25 172 -25q79 0 136 42t57 126q0 52 -39 78.5t-92 26.5q-72 0 -134 -72.5t-100 -175.5z" />
<glyph unicode="&#xe7;" horiz-adv-x="845" d="M63 301q0 103 22.5 205t68.5 194.5t110.5 163t154.5 112.5t193 42q133 0 201 -57l-80 -142q-76 55 -174 55q-82 0 -148 -54.5t-103.5 -137t-57 -168.5t-19.5 -162q0 -235 168 -235q65 0 141 43t140 106l82 -98q-201 -185 -389 -197l-23 -41q31 -10 47.5 -40t16.5 -66 q0 -97 -74.5 -146t-177.5 -49q-23 0 -33 2l39 109q22 -10 61 -10q26 0 44 18.5t18 44.5q0 23 -19.5 39t-46.5 21l70 118q-117 14 -174.5 104.5t-57.5 225.5z" />
<glyph unicode="&#xe8;" horiz-adv-x="903" d="M74 287q0 100 22 202t68 197t109 169t153 118.5t192 44.5q107 0 174.5 -50.5t67.5 -146.5q0 -86 -33 -151t-91 -104t-130 -58t-157 -19q-112 0 -191 27q-20 -75 -20 -186q0 -104 39.5 -160.5t134.5 -56.5q63 0 144.5 48.5t150.5 117.5l86 -93q-217 -217 -437 -217 q-148 0 -215 85t-67 233zM293 635q95 -25 190 -25q90 0 150.5 41.5t60.5 126.5q0 51 -38.5 78t-92.5 27q-94 0 -161.5 -71t-108.5 -177zM324 1417l10 31l127 78l198 -352l-61 -48z" />
<glyph unicode="&#xe9;" horiz-adv-x="917" d="M74 287q0 100 22 202t68 197t109 169t153 118.5t192 44.5q107 0 174.5 -50.5t67.5 -146.5q0 -86 -33 -151t-91 -104t-130 -58t-157 -19q-112 0 -191 27q-20 -75 -20 -186q0 -104 39.5 -160.5t134.5 -56.5q63 0 144.5 48.5t150.5 117.5l86 -93q-217 -217 -437 -217 q-148 0 -215 85t-67 233zM293 635q95 -25 190 -25q90 0 150.5 41.5t60.5 126.5q0 51 -38.5 78t-92.5 27q-94 0 -161.5 -71t-108.5 -177zM471 1225l340 282l86 -114l-4 -33l-379 -201z" />
<glyph unicode="&#xea;" horiz-adv-x="911" d="M74 287q0 100 22 202t68 197t109 169t153 118.5t192 44.5q107 0 174.5 -50.5t67.5 -146.5q0 -86 -33 -151t-91 -104t-130 -58t-157 -19q-112 0 -191 27q-20 -75 -20 -186q0 -104 39.5 -160.5t134.5 -56.5q63 0 144.5 48.5t150.5 117.5l86 -93q-217 -217 -437 -217 q-148 0 -215 85t-67 233zM293 635q95 -25 190 -25q90 0 150.5 41.5t60.5 126.5q0 51 -38.5 78t-92.5 27q-94 0 -161.5 -71t-108.5 -177zM311 1227l346 280l244 -288l-55 -60l-225 168l-269 -168z" />
<glyph unicode="&#xeb;" horiz-adv-x="913" d="M74 287q0 100 22 202t68 197t109 169t153 118.5t192 44.5q107 0 174.5 -50.5t67.5 -146.5q0 -86 -33 -151t-91 -104t-130 -58t-157 -19q-112 0 -191 27q-20 -75 -20 -186q0 -104 39.5 -160.5t134.5 -56.5q63 0 144.5 48.5t150.5 117.5l86 -93q-217 -217 -437 -217 q-148 0 -215 85t-67 233zM293 635q95 -25 190 -25q90 0 150.5 41.5t60.5 126.5q0 51 -38.5 78t-92.5 27q-94 0 -161.5 -71t-108.5 -177zM317 1294q0 46 31.5 77.5t77.5 31.5q45 0 74.5 -31.5t29.5 -77.5t-29 -76t-75 -30t-77.5 30.5t-31.5 75.5zM696 1294q0 46 30.5 77.5 t76.5 31.5q45 0 75.5 -31.5t30.5 -77.5t-30 -76t-76 -30t-76.5 30t-30.5 76z" />
<glyph unicode="&#xec;" horiz-adv-x="540" d="M96 119q0 26 8 76l138 782l166 41l-129 -758q-9 -61 -9 -80q0 -67 45 -127l-151 -84q-68 47 -68 150zM123 1417l10 31l127 78l199 -352l-64 -48z" />
<glyph unicode="&#xed;" horiz-adv-x="540" d="M96 119q0 26 8 76l138 782l166 41l-129 -758q-9 -61 -9 -80q0 -67 45 -127l-151 -84q-68 47 -68 150zM258 1225l340 282l86 -114l-4 -33l-379 -201z" />
<glyph unicode="&#xee;" horiz-adv-x="540" d="M96 119q0 26 8 76l138 782l166 41l-129 -758q-9 -61 -9 -80q0 -67 45 -127l-151 -84q-68 47 -68 150zM121 1227l289 280l182 -288l-68 -58l-151 158l-197 -158z" />
<glyph unicode="&#xef;" horiz-adv-x="542" d="M96 119q0 26 8 76l138 782l166 41l-129 -758q-9 -61 -9 -80q0 -67 45 -127l-151 -84q-68 47 -68 150zM113 1294q0 46 31 77.5t77 31.5q45 0 75 -31.5t30 -77.5t-29.5 -76t-75.5 -30t-77 30t-31 76zM436 1294q0 46 30 77.5t75 31.5q46 0 77 -31.5t31 -77.5t-31 -76 t-77 -30t-75.5 30t-29.5 76z" />
<glyph unicode="&#xf0;" horiz-adv-x="1019" d="M55 309q0 123 40.5 248t111 227.5t177.5 167t230 64.5q70 0 105 -15q-27 157 -129 287l-262 -178l-6 139l186 129q-52 52 -135 101l119 110q33 -19 82.5 -58t72.5 -65l164 113l6 -143l-86 -60q82 -95 130 -244t48 -305q0 -75 -8.5 -153.5t-29 -163.5t-51 -162t-76.5 -147 t-103 -121t-134.5 -81t-166.5 -30q-61 0 -109.5 17.5t-81 48t-54 74t-31 93t-9.5 107.5zM229 340q0 -215 164 -215q75 0 136.5 46.5t99 116t63 157t35.5 164.5t10 143q0 67 -4 90q-43 30 -147 30q-75 0 -137 -36t-101.5 -92.5t-67 -128.5t-39.5 -141.5t-12 -133.5z" />
<glyph unicode="&#xf1;" horiz-adv-x="1130" d="M98 0l115 659q14 86 14 148q0 82 -37 135l166 76q22 -24 36 -71t14 -89l6 -4q87 69 199 116.5t212 47.5q82 0 121 -57t39 -132q0 -40 -12 -114l-78 -455q-8 -54 -8 -82q0 -65 45 -125l-152 -84q-67 46 -67 150q0 26 8 76l86 499q6 34 6 72q0 42 -24 70t-72 28 q-81 0 -170 -45t-160 -108l-125 -711h-162zM358 1229q53 92 93 126t86 34q51 0 143 -33q72 -29 117 -29q26 0 46 17.5t42 54.5l78 -37q-52 -95 -91.5 -130.5t-78.5 -35.5q-57 0 -152 37q-66 27 -115 27q-29 0 -49 -16t-41 -54z" />
<glyph unicode="&#xf2;" horiz-adv-x="1013" d="M74 358q0 99 22.5 194t68.5 179.5t110.5 148t154 101t193.5 37.5q76 0 135.5 -31.5t95.5 -86t54 -122.5t18 -145q0 -95 -21 -189t-64.5 -180t-104.5 -151.5t-147 -104.5t-186 -39q-111 0 -186.5 53t-109 138.5t-33.5 197.5zM246 414q0 -52 10 -101t31.5 -95.5t62 -74.5 t94.5 -28q67 0 121.5 31t88.5 80.5t57.5 114t33 127t9.5 124.5q0 53 -9.5 99.5t-30.5 89t-61 67t-94 24.5q-76 0 -138 -44.5t-99 -114.5t-56.5 -147.5t-19.5 -151.5zM328 1417l8 31l127 78l201 -352l-64 -48z" />
<glyph unicode="&#xf3;" horiz-adv-x="1013" d="M74 358q0 99 22.5 194t68.5 179.5t110.5 148t154 101t193.5 37.5q76 0 135.5 -31.5t95.5 -86t54 -122.5t18 -145q0 -95 -21 -189t-64.5 -180t-104.5 -151.5t-147 -104.5t-186 -39q-111 0 -186.5 53t-109 138.5t-33.5 197.5zM246 414q0 -52 10 -101t31.5 -95.5t62 -74.5 t94.5 -28q67 0 121.5 31t88.5 80.5t57.5 114t33 127t9.5 124.5q0 53 -9.5 99.5t-30.5 89t-61 67t-94 24.5q-76 0 -138 -44.5t-99 -114.5t-56.5 -147.5t-19.5 -151.5zM471 1225l340 282l86 -114l-4 -33l-379 -201z" />
<glyph unicode="&#xf4;" horiz-adv-x="1013" d="M74 358q0 99 22.5 194t68.5 179.5t110.5 148t154 101t193.5 37.5q76 0 135.5 -31.5t95.5 -86t54 -122.5t18 -145q0 -95 -21 -189t-64.5 -180t-104.5 -151.5t-147 -104.5t-186 -39q-111 0 -186.5 53t-109 138.5t-33.5 197.5zM246 414q0 -52 10 -101t31.5 -95.5t62 -74.5 t94.5 -28q67 0 121.5 31t88.5 80.5t57.5 114t33 127t9.5 124.5q0 53 -9.5 99.5t-30.5 89t-61 67t-94 24.5q-76 0 -138 -44.5t-99 -114.5t-56.5 -147.5t-19.5 -151.5zM311 1227l346 280l244 -288l-55 -60l-225 168l-269 -168z" />
<glyph unicode="&#xf5;" horiz-adv-x="1013" d="M74 358q0 99 22.5 194t68.5 179.5t110.5 148t154 101t193.5 37.5q76 0 135.5 -31.5t95.5 -86t54 -122.5t18 -145q0 -95 -21 -189t-64.5 -180t-104.5 -151.5t-147 -104.5t-186 -39q-111 0 -186.5 53t-109 138.5t-33.5 197.5zM246 414q0 -52 10 -101t31.5 -95.5t62 -74.5 t94.5 -28q67 0 121.5 31t88.5 80.5t57.5 114t33 127t9.5 124.5q0 53 -9.5 99.5t-30.5 89t-61 67t-94 24.5q-76 0 -138 -44.5t-99 -114.5t-56.5 -147.5t-19.5 -151.5zM326 1229q53 92 93 126t85 34q51 0 143 -33q72 -29 117 -29q26 0 46 17.5t42 54.5l78 -37 q-52 -95 -91.5 -130.5t-78.5 -35.5q-57 0 -152 37q-66 27 -114 27q-29 0 -49.5 -16.5t-41.5 -53.5z" />
<glyph unicode="&#xf6;" horiz-adv-x="1013" d="M74 358q0 99 22.5 194t68.5 179.5t110.5 148t154 101t193.5 37.5q76 0 135.5 -31.5t95.5 -86t54 -122.5t18 -145q0 -95 -21 -189t-64.5 -180t-104.5 -151.5t-147 -104.5t-186 -39q-111 0 -186.5 53t-109 138.5t-33.5 197.5zM246 414q0 -52 10 -101t31.5 -95.5t62 -74.5 t94.5 -28q67 0 121.5 31t88.5 80.5t57.5 114t33 127t9.5 124.5q0 53 -9.5 99.5t-30.5 89t-61 67t-94 24.5q-76 0 -138 -44.5t-99 -114.5t-56.5 -147.5t-19.5 -151.5zM319 1294q0 46 30.5 77.5t76.5 31.5q45 0 75.5 -31.5t30.5 -77.5t-30 -76t-76 -30t-76.5 30t-30.5 76z M698 1294q0 46 30 77.5t75 31.5q46 0 77 -31.5t31 -77.5t-31 -76t-77 -30t-75.5 30t-29.5 76z" />
<glyph unicode="&#xf7;" d="M197 625v135h624v-135h-624zM395 412q15 36 54 64t83 32q39 -15 67 -54t34 -87q-20 -38 -56.5 -64.5t-82.5 -30.5q-38 15 -67 56t-32 84zM395 1016q15 36 54 64t83 32q39 -13 67 -53t34 -88q-19 -38 -56 -64t-83 -30q-38 15 -67 55.5t-32 83.5z" />
<glyph unicode="&#xf8;" horiz-adv-x="1034" d="M12 4l111 125q-49 94 -49 229q0 99 22.5 194t69 179.5t111 148t154 101t192.5 37.5q125 0 204 -82l91 100l73 -65l-108 -121q45 -102 45 -217q0 -95 -21 -189t-65 -180t-105 -151.5t-147.5 -104.5t-186.5 -39q-138 0 -223 82l-98 -110zM236 416q0 -74 18 -135l461 526 q-53 78 -156 78q-76 0 -139.5 -46.5t-102.5 -118t-60 -151.5t-21 -153zM297 180q55 -78 149 -78q67 0 122.5 32t91.5 83t61 116.5t36 130.5t11 128q0 60 -12 113z" />
<glyph unicode="&#xf9;" horiz-adv-x="1060" d="M104 158q0 34 13 114l123 705l168 35l-125 -719q-7 -40 -7 -72q0 -53 24 -74.5t75 -21.5q74 0 156 45.5t153 108.5l121 696l168 37l-121 -684q-16 -102 -16 -154q0 -78 32 -133l-159 -72q-24 24 -35.5 71t-11.5 89l-7 4q-101 -78 -194.5 -121t-196.5 -43q-160 0 -160 189 zM365 1417l10 31l125 78l200 -352l-63 -48z" />
<glyph unicode="&#xfa;" horiz-adv-x="1060" d="M104 158q0 34 13 114l123 705l168 35l-125 -719q-7 -40 -7 -72q0 -53 24 -74.5t75 -21.5q74 0 156 45.5t153 108.5l121 696l168 37l-121 -684q-16 -102 -16 -154q0 -78 32 -133l-159 -72q-24 24 -35.5 71t-11.5 89l-7 4q-101 -78 -194.5 -121t-196.5 -43q-160 0 -160 189 zM494 1225l340 282l86 -114l-5 -33l-378 -201z" />
<glyph unicode="&#xfb;" horiz-adv-x="1060" d="M104 158q0 34 13 114l123 705l168 35l-125 -719q-7 -40 -7 -72q0 -53 24 -74.5t75 -21.5q74 0 156 45.5t153 108.5l121 696l168 37l-121 -684q-16 -102 -16 -154q0 -78 32 -133l-159 -72q-24 24 -35.5 71t-11.5 89l-7 4q-101 -78 -194.5 -121t-196.5 -43q-160 0 -160 189 zM350 1227l348 280l244 -288l-57 -60l-223 168l-269 -168z" />
<glyph unicode="&#xfc;" horiz-adv-x="1060" d="M104 158q0 34 13 114l123 705l168 35l-125 -719q-7 -40 -7 -72q0 -53 24 -74.5t75 -21.5q74 0 156 45.5t153 108.5l121 696l168 37l-121 -684q-16 -102 -16 -154q0 -78 32 -133l-159 -72q-24 24 -35.5 71t-11.5 89l-7 4q-101 -78 -194.5 -121t-196.5 -43q-160 0 -160 189 zM358 1294q0 46 30.5 77.5t76.5 31.5q45 0 75.5 -31.5t30.5 -77.5t-30 -76t-76 -30t-76.5 30t-30.5 76zM737 1294q0 46 30 77.5t75 31.5q46 0 77 -31.5t31 -77.5t-31 -76t-77 -30t-75.5 30t-29.5 76z" />
<glyph unicode="&#xfd;" horiz-adv-x="929" d="M70 -387l227 387h-70l-121 983l168 31l99 -869h8l405 869l150 -41l-725 -1422zM397 1225l340 282l86 -114l-4 -33l-379 -201z" />
<glyph unicode="&#xfe;" horiz-adv-x="1075" d="M8 -451l342 1995l168 41l-125 -727l8 -2q81 73 182.5 117.5t204.5 44.5q49 0 86 -27.5t57 -72.5t29 -92.5t9 -96.5q0 -107 -26.5 -215.5t-80 -206t-125.5 -173.5t-170.5 -120.5t-208.5 -44.5q-43 0 -112 15l-70 -396zM272 131q58 -18 123 -18q84 0 153.5 35t115 91.5 t77 131t45 150.5t13.5 153q0 190 -119 190q-142 0 -307 -157z" />
<glyph unicode="&#xff;" horiz-adv-x="929" d="M70 -387l227 387h-70l-121 983l168 31l99 -869h8l405 869l150 -41l-725 -1422zM256 1294q0 46 31.5 77.5t77.5 31.5q45 0 74.5 -31.5t29.5 -77.5t-29 -76t-75 -30t-77.5 30.5t-31.5 75.5zM637 1294q0 46 29.5 77.5t74.5 31.5q46 0 77.5 -31.5t31.5 -77.5 q0 -45 -31.5 -75.5t-77.5 -30.5t-75 30t-29 76z" />
<glyph unicode="&#x152;" horiz-adv-x="1624" d="M82 477q0 129 28 260t89.5 255t148.5 220t214.5 154.5t277.5 58.5q104 0 155 -22h611l-35 -146h-428l-82 -466h416l-37 -146h-406l-88 -500h479l-55 -145h-643q-26 -7 -86.5 -13.5t-105.5 -6.5q-210 0 -331.5 135.5t-121.5 361.5zM274 524q0 -85 17.5 -154.5t54 -125 t101 -86.5t151.5 -31q97 0 174 29l193 1087q-68 35 -174 35q-91 0 -169.5 -34.5t-133.5 -93.5t-97.5 -134t-67 -161t-37 -169t-12.5 -162z" />
<glyph unicode="&#x153;" horiz-adv-x="1490" d="M74 358q0 124 34.5 241t98.5 211t164 151t221 57q95 0 156.5 -55.5t87.5 -149.5h10q138 205 340 205q106 0 173.5 -50.5t67.5 -146.5q0 -86 -32 -151t-87.5 -104t-124.5 -58t-149 -19q-34 0 -86 8t-86 19q-20 -75 -20 -186q0 -98 36 -157.5t103 -59.5q65 0 145 47.5 t148 118.5l86 -93q-217 -217 -436 -217q-82 0 -135 46.5t-74 113.5h-10q-130 -160 -322 -160q-156 0 -232.5 107.5t-76.5 281.5zM246 414q0 -54 8.5 -103t27.5 -95.5t56 -74.5t88 -28q78 0 137 46.5t91 121t47.5 153.5t15.5 158q0 52 -9.5 100.5t-29.5 91.5t-55.5 69 t-83.5 26q-73 0 -131.5 -45.5t-92.5 -117t-51.5 -150t-17.5 -152.5zM897 635q95 -25 174 -25q78 0 134.5 40t56.5 116q0 57 -32.5 87t-86.5 30q-79 0 -142 -71.5t-104 -176.5z" />
<glyph unicode="&#x178;" horiz-adv-x="1019" d="M98 1389l174 38l232 -673l457 673l161 -59l-573 -786l-103 -582h-178l103 582zM332 1645q0 47 31.5 79.5t78.5 32.5t80 -32.5t33 -79.5t-33 -80t-80 -33t-78.5 32.5t-31.5 80.5zM729 1645q0 47 33 79.5t80 32.5t78.5 -32.5t31.5 -79.5q0 -48 -31.5 -80.5t-78.5 -32.5 t-80 33t-33 80z" />
<glyph unicode="&#x2c6;" horiz-adv-x="905" d="M133 1227l348 280l244 -288l-55 -60l-226 168l-268 -168z" />
<glyph unicode="&#x2dc;" horiz-adv-x="1179" d="M289 1229q53 92 93.5 126t84.5 34q48 0 145 -33q68 -29 115 -29q48 0 88 72l80 -37q-52 -94 -92.5 -130t-79.5 -36q-53 0 -152 37q-62 27 -114 27q-29 0 -49 -16.5t-39 -53.5z" />
<glyph unicode="&#x2000;" horiz-adv-x="946" />
<glyph unicode="&#x2001;" horiz-adv-x="1892" />
<glyph unicode="&#x2002;" horiz-adv-x="946" />
<glyph unicode="&#x2003;" horiz-adv-x="1892" />
<glyph unicode="&#x2004;" horiz-adv-x="630" />
<glyph unicode="&#x2005;" horiz-adv-x="473" />
<glyph unicode="&#x2006;" horiz-adv-x="315" />
<glyph unicode="&#x2007;" horiz-adv-x="315" />
<glyph unicode="&#x2008;" horiz-adv-x="236" />
<glyph unicode="&#x2009;" horiz-adv-x="378" />
<glyph unicode="&#x200a;" horiz-adv-x="105" />
<glyph unicode="&#x2010;" horiz-adv-x="706" d="M82 461v153h522v-153h-522z" />
<glyph unicode="&#x2011;" horiz-adv-x="706" d="M82 461v153h522v-153h-522z" />
<glyph unicode="&#x2012;" horiz-adv-x="706" d="M82 461v153h522v-153h-522z" />
<glyph unicode="&#x2013;" horiz-adv-x="954" d="M92 461v153h750v-153h-750z" />
<glyph unicode="&#x2014;" horiz-adv-x="1478" d="M92 461v153h1274v-153h-1274z" />
<glyph unicode="&#x2018;" horiz-adv-x="403" d="M117 1059q27 119 106.5 256.5t167.5 224.5l76 -45q-119 -196 -154 -422l-161 -45z" />
<glyph unicode="&#x2019;" horiz-adv-x="403" d="M100 1061q120 198 152 422l162 45l35 -31q-27 -119 -107 -256.5t-168 -224.5z" />
<glyph unicode="&#x201a;" horiz-adv-x="419" d="M-109 -213q119 196 154 422l160 45l35 -31q-26 -119 -105 -256.5t-168 -224.5z" />
<glyph unicode="&#x201c;" horiz-adv-x="718" d="M117 1059q27 119 106.5 256.5t167.5 224.5l76 -45q-119 -196 -154 -422l-161 -45zM434 1059q25 118 105 255.5t168 225.5l75 -45q-120 -208 -151 -422l-162 -45z" />
<glyph unicode="&#x201d;" horiz-adv-x="718" d="M100 1061q120 203 152 422l162 45l35 -31q-27 -119 -107 -256.5t-168 -224.5zM418 1061q115 194 151 422l160 45l37 -31q-27 -119 -106.5 -256.5t-167.5 -224.5z" />
<glyph unicode="&#x201e;" horiz-adv-x="735" d="M-109 -213q119 201 154 422l160 45l35 -31q-26 -119 -105 -256.5t-168 -224.5zM209 -213q119 200 151 422l162 45l35 -31q-27 -119 -106.5 -256.5t-167.5 -224.5z" />
<glyph unicode="&#x2022;" horiz-adv-x="724" d="M143 670q0 90 55.5 146t145.5 56q86 0 141.5 -56.5t55.5 -145.5q0 -91 -55.5 -148t-141.5 -57q-90 0 -145.5 57t-55.5 148z" />
<glyph unicode="&#x2026;" horiz-adv-x="1540" d="M6 129q18 41 62 74t92 37q45 -17 76.5 -62t37.5 -100q-21 -44 -62.5 -73.5t-94.5 -35.5q-44 19 -76 65t-35 95zM567 129q15 41 59.5 74t94.5 37q44 -17 76.5 -62.5t38.5 -99.5q-23 -44 -64.5 -73.5t-95.5 -35.5q-43 19 -74.5 65t-34.5 95zM1126 129q18 41 62 74t92 37 q45 -17 77 -62t40 -100q-22 -44 -64.5 -73.5t-95.5 -35.5q-44 19 -76 65t-35 95z" />
<glyph unicode="&#x202f;" horiz-adv-x="378" />
<glyph unicode="&#x2039;" horiz-adv-x="477" d="M18 485l375 365l84 -94l-299 -283l189 -272l-105 -74z" />
<glyph unicode="&#x203a;" horiz-adv-x="479" d="M-4 221l299 281l-189 274l105 74l246 -358l-377 -365z" />
<glyph unicode="&#x205f;" horiz-adv-x="473" />
<glyph unicode="&#x20ac;" d="M-23 512l41 119h132q12 112 24 162h-117l43 118h109q89 249 272 386t418 137q121 0 191 -29l-46 -148q-85 35 -178 35q-160 0 -286 -103t-195 -278h571l-41 -118h-567q-18 -75 -24 -162h550l-40 -119h-515q6 -205 103.5 -303t253.5 -98q94 0 215 45l-49 -160 q-84 -27 -207 -27q-247 0 -370.5 143.5t-121.5 399.5h-166z" />
<glyph unicode="&#x2122;" horiz-adv-x="925" d="M111 1335l18 68h303l-16 -68h-107l-67 -352h-84l65 352h-112zM385 993l162 408l67 6l45 -260h7l143 254l72 8v-426h-86l4 260h-6l-136 -244l-49 -2l-41 246h-6l-94 -266z" />
<glyph unicode="&#x25fc;" horiz-adv-x="1013" d="M0 0v1014h1014v-1014h-1014z" />
</font>
</defs>
</svg>
